<?xml version="1.0" encoding="UTF-8" standalone="no"?>
<!-- Created with Inkscape (http://www.inkscape.org/) -->

<svg
   version="1.1"
   id="svg1"
   width="1024"
   height="1024"
   viewBox="0 0 1024 1024"
   sodipodi:docname="heap.svg"
   inkscape:version="1.4.2 (f4327f4, 2025-05-13)"
   xmlns:inkscape="http://www.inkscape.org/namespaces/inkscape"
   xmlns:sodipodi="http://sodipodi.sourceforge.net/DTD/sodipodi-0.dtd"
   xmlns:xlink="http://www.w3.org/1999/xlink"
   xmlns="http://www.w3.org/2000/svg"
   xmlns:svg="http://www.w3.org/2000/svg">
  <defs
     id="defs1">
    <pattern
       inkscape:collect="always"
       xlink:href="#pattern33-9"
       preserveAspectRatio="xMidYMid"
       id="pattern18"
       patternTransform="matrix(0.63071764,0,0,0.6,219.94508,559.66525)" />
    <clipPath
       clipPathUnits="userSpaceOnUse"
       id="clipPath33">
      <rect
         style="fill:#000000;stroke:none;stroke-width:0.999995;stroke-linecap:butt;stroke-linejoin:bevel;paint-order:stroke markers fill;stop-color:#000000"
         id="rect33"
         width="46.19186"
         height="80.006783"
         x="74.999985"
         y="399.99661" />
    </clipPath>
    <pattern
       patternUnits="userSpaceOnUse"
       width="46.19186"
       height="80.006735"
       patternTransform="translate(235.4943,562.45164) scale(0.6)"
       preserveAspectRatio="xMidYMid"
       style="fill:#000000"
       id="pattern33-9"
       inkscape:label="Tiles 2"
       inkscape:collect="always"
       inkscape:isstock="true">
      <path
         style="stroke:none;stroke-linecap:butt;stroke-linejoin:bevel;paint-order:stroke markers fill;"
         d="M 63.449143,440 75,420 86.550857,440 Z M 86.54508,440.003 75,420 98.095937,419.997 Z m 11.550857,-20 L 75,420 86.54508,399.99666 Z M 86.550857,400 75,420 63.449143,400 Z M 63.45492,399.99666 75,420 51.904063,420.003 Z m -11.550857,20 L 75,420 63.45492,440.00334 Z M 109.64102,440 l 11.55085,-20 11.55086,20 z m 23.09593,0.003 -11.54508,-20.003 23.09594,-0.003 z m 11.55086,-20 L 121.19187,420 132.73695,399.99666 Z M 132.74273,400 121.19187,420 109.64102,400 Z m -23.09594,-0.003 11.54508,20.00334 -23.095933,0.003 z m -11.550853,20 23.095933,0.003 -11.54508,20.00334 z m -11.550857,60.01001 11.550857,-20 11.550853,20 z m 23.09594,0.003 -11.545083,-20.00334 23.095933,-0.003 z m 11.55085,-20 -23.095933,-0.003 11.545083,-20.00333 z m -11.54508,-20.00334 -11.550853,20 -11.550857,-20 z M 86.550857,440.00367 98.095937,460.007 75,460.01001 Z m -11.550857,20 23.095937,0.003 -11.54508,20.00334 z m 57.73695,20.00333 11.55086,-20 11.55086,20 z m 23.09594,0.003 -11.54508,-20.00334 23.09594,-0.003 z m 11.55086,-20 -23.09594,-0.003 11.54508,-20.00333 z m -11.54508,-20.00334 -11.55086,20 -11.55086,-20 z m -23.09594,-0.003 11.54508,20.00333 -23.09594,0.003 z m -11.55086,20 23.09594,0.003 -11.54508,20.00334 z"
         id="path25-6-7"
         sodipodi:nodetypes="cccc"
         transform="translate(-74.999985,-399.99666)"
         clip-path="url(#clipPath33)" />
    </pattern>
  </defs>
  <sodipodi:namedview
     id="namedview1"
     pagecolor="#ffffff"
     bordercolor="#000000"
     borderopacity="0.25"
     inkscape:showpageshadow="2"
     inkscape:pageopacity="0.0"
     inkscape:pagecheckerboard="0"
     inkscape:deskcolor="#d1d1d1"
     inkscape:zoom="0.71777344"
     inkscape:cx="512"
     inkscape:cy="512"
     inkscape:window-width="1920"
     inkscape:window-height="974"
     inkscape:window-x="-11"
     inkscape:window-y="1564"
     inkscape:window-maximized="1"
     inkscape:current-layer="g1" />
  <g
     inkscape:groupmode="layer"
     inkscape:label="Image"
     id="g1">
    <path
       style="fill:url(#pattern18);fill-opacity:1;stroke-width:0.867666"
       d="m 351.98917,804.83678 c -86.95304,-0.41197 -89.39523,-0.46663 -92.283,-2.06553 -3.38328,-1.87325 -6.55481,-7.20196 -6.55481,-11.01317 0,-3.84402 4.40993,-10.93732 20.66158,-33.2338 31.66122,-43.43763 55.86385,-71.38361 92.10934,-106.3556 34.62028,-33.40388 76.08643,-65.60557 103.04008,-80.01861 16.59609,-8.8745 27.16179,-11.76837 43.07152,-11.79697 9.80133,-0.0176 11.78114,0.2454 19.94893,2.65033 25.91951,7.63175 62.05402,33.25211 113.34611,80.36552 39.1317,35.94372 73.11464,74.60859 107.23385,122.0078 14.25252,19.79992 15.94847,22.87298 15.41714,27.93594 -0.53775,5.12422 -2.75477,8.04142 -7.96326,10.47823 l -3.99282,1.86806 -157.35897,-0.19952 c -86.54742,-0.10973 -197.5515,-0.38994 -246.67569,-0.62268 z"
       id="path1" />
    <path
       style="fill:#000000"
       d="m 250.09374,374.20811 c -5.23776,-2.63155 -8.3028,-7.77807 -7.7327,-12.98402 0.25512,-2.32957 1.14699,-5.27819 1.98195,-6.5525 0.83496,-1.27431 51.26445,-35.55558 112.06553,-76.1806 l 110.54743,-73.86368 0.30893,-18.76387 c 0.33793,-20.52511 0.57663,-21.39938 7.19214,-26.34199 2.6356,-1.96913 4.23916,-2.0753 35.67955,-2.36241 30.92819,-0.28244 33.18889,-0.18165 37.36529,1.66577 3.26205,1.44296 4.99459,3.04297 6.50866,6.01078 1.85615,3.63837 2.06329,5.83541 2.06329,21.88471 v 17.84032 l 110.31138,73.66235 c 60.67125,40.5143 111.13687,74.57452 112.14582,75.68939 1.03388,1.14244 2.03758,4.1412 2.29994,6.87157 0.62882,6.5443 -1.62368,10.75807 -7.07346,13.23235 -4.07486,1.85005 -10.89433,1.89999 -262.18368,1.91986 -243.65693,0.0193 -258.19347,-0.0768 -261.48007,-1.72803 z"
       id="path14" />
    <path
       style="fill:#000000"
       d="m 421.07381,494.63397 v -92.67431 h 91.5 91.5 v 92.59581 92.59581 l -4.75,-3.60461 c -18.75251,-14.23062 -46.80302,-28.99971 -62.93083,-33.13418 -25.44066,-6.52189 -46.79173,-3.37115 -75.31917,11.11472 -11.90461,6.04501 -32.94143,19.25219 -37.75,23.69992 l -2.25,2.08116 z"
       id="path13" />
    <path
       style="fill:#000000"
       d="M 756.74253,746.53875 C 755.8344,744.1722 735.63331,717.89569 723.84589,703.74855 700.13058,675.28566 665.7898,638.98891 642.69524,617.97573 L 630.07381,606.49181 V 504.22573 401.95966 h 64 64 v 173 c 0,95.15 -0.17686,173 -0.39301,173 -0.21616,0 -0.63838,-0.63941 -0.93827,-1.42091 z"
       id="path12" />
    <path
       style="fill:#000000"
       d="m 265.12937,575.20966 -0.0556,-173.25 h 64 64 V 504.49408 607.0285 l -30.27662,30.21558 c -40.2318,40.15068 -65.31563,68.62676 -95.41782,108.32182 l -2.19445,2.89376 z"
       id="path11" />
  </g>
</svg>
